<svg width="212" height="260" viewBox="0 0 212 260" fill="none" xmlns="http://www.w3.org/2000/svg">
<path d="M50.0367 180.422C41.4031 179.508 32.4678 181.717 25.27 186.549C23.9391 187.444 22.6399 188.448 21.7568 189.785C19.7303 192.854 20.337 196.981 21.814 200.343C27.0456 212.244 40.5614 217.655 52.0506 223.823C67.3769 232.049 66.7002 229.242 77.3762 242.929C80.7559 247.262 83.9324 251.901 88.4334 255.067C95.0658 259.729 103.725 260.553 111.802 259.706C119.88 258.859 193.453 244.316 199.73 240.448C201.963 239.071 204.081 237.187 204.771 234.662C205.46 232.14 204.142 228.968 201.572 228.421" fill="#E1E0DF"/>
<path d="M62.9033 219.892L62.8662 203.078C62.8662 203.078 66.613 198.119 68.5187 201.755C70.4243 205.391 68.4817 202.773 70.2763 209.461C72.0709 216.15 68.6745 219.625 68.6745 219.625L62.9033 219.892Z" fill="#101010"/>
<path d="M64.9987 207.56C70.147 213.097 65.4003 223.215 61.2185 219.001C57.0368 214.786 59.8504 202.022 64.9987 207.56Z" fill="#3643BA"/>
<path d="M63.6944 209.977C65.2534 212.878 63.8612 217.535 62.1993 215.86C60.5374 214.185 62.1354 207.076 63.6944 209.977Z" fill="#101010"/>
<path d="M107.393 246.414L105.922 229.678C105.922 229.678 109.486 224.587 111.523 228.151C113.559 231.715 111.523 229.169 113.559 235.788C115.596 242.407 112.328 244.769 112.328 244.769L107.393 246.414Z" fill="#101010"/>
<path d="M108.215 234.075C113.561 239.421 109.185 249.706 104.853 245.646C100.521 241.586 102.869 228.729 108.215 234.075Z" fill="#3643BA"/>
<path d="M106.999 236.538C108.662 239.381 107.44 244.085 105.718 242.472C103.997 240.858 105.335 233.695 106.999 236.538Z" fill="#101010"/>
<path d="M157.024 236.212L155.553 219.476C155.553 219.476 159.117 214.385 161.154 217.949C163.19 221.513 161.154 218.967 163.19 225.586C165.227 232.205 161.959 234.567 161.959 234.567L157.024 236.212Z" fill="#101010"/>
<path d="M157.846 223.875C163.192 229.221 158.817 239.506 154.484 235.446C150.152 231.386 152.5 218.528 157.846 223.875Z" fill="#3643BA"/>
<path d="M156.63 226.336C158.293 229.179 157.071 233.883 155.35 232.269C153.628 230.656 154.966 223.493 156.63 226.336Z" fill="#101010"/>
<path d="M57.0555 22.2364L56.0918 74.7936L68.6203 72.8825L64.7654 22.2364C64.7654 22.2364 62.8379 12.6805 70.5478 12.6805C78.2577 12.6805 98.4961 10.7694 104.278 10.7694C110.061 10.7694 110.061 16.5029 110.061 16.5029L108.133 71.9269L121.626 70.9713L117.771 19.3696C117.771 19.3696 119.698 -2.60885 96.5686 0.257901C93.6774 0.257901 78.2577 1.21349 75.3665 1.21349C54.1643 1.21349 57.0555 22.2364 57.0555 22.2364Z" fill="#101010"/>
<path d="M68.9571 8.71751C69.7302 8.6073 70.504 8.50991 71.2779 8.41251C73.2758 8.16139 75.2778 7.93625 77.2819 7.73175C80.0653 7.44586 82.8526 7.20376 85.6455 7.01328C88.731 6.80282 91.8234 6.65181 94.9189 6.60548C97.8538 6.56204 100.794 6.60832 103.718 6.85831C104.052 6.88736 104.386 6.91892 104.719 6.95296C105.524 7.0353 105.701 5.78898 104.894 5.7063C101.97 5.40539 99.0229 5.33278 96.0847 5.34524C92.9556 5.35891 89.8254 5.48937 86.7014 5.68425C83.8416 5.8628 80.9837 6.1001 78.1323 6.38152C75.99 6.59207 73.8518 6.8286 71.715 7.09076C70.7578 7.20821 69.787 7.29578 68.8353 7.46484C68.8222 7.46808 68.8094 7.46882 68.7965 7.46957C67.995 7.58341 68.1552 8.83385 68.9596 8.71786L68.9571 8.71751Z" fill="white"/>
<path d="M128.749 65.5332L44.6943 72.9586L46.6047 96.163L128.749 83.1685V65.5332Z" fill="#323B87"/>
<path d="M118.427 76.4925C117.409 77.2639 116.011 77.7067 114.718 77.4144C113.426 77.1221 112.36 75.9736 112.525 74.7854C112.723 73.3654 114.641 72.4816 116.159 72.914C117.677 73.3464 118.659 74.775 118.777 76.2019" fill="#3643BA"/>
<path d="M118.821 76.5967C117.736 77.4723 116.223 78.0585 114.802 77.7812C113.562 77.538 112.421 76.57 112.219 75.3199C112.036 74.1962 112.776 73.272 113.764 72.788C114.83 72.2675 116.035 72.3624 117.035 73.0044C118.253 73.7852 118.974 75.2323 119.091 76.621C119.119 76.9494 119.359 77.2291 119.716 77.2291C120.034 77.2291 120.369 76.9494 120.342 76.621C120.204 74.9915 119.476 73.3498 118.148 72.304C116.82 71.2582 115.175 70.9371 113.607 71.5354C112.144 72.0948 110.966 73.3425 110.941 74.9307C110.913 76.6673 112.236 78.1776 113.844 78.7808C115.855 79.5323 118.123 78.7346 119.701 77.4601C119.961 77.251 119.924 76.818 119.701 76.5992C119.444 76.3486 119.079 76.3876 118.816 76.5992L118.821 76.5967Z" fill="#101010"/>
<path d="M60.8585 80.7571C61.876 81.5285 63.2744 81.9713 64.567 81.679C65.8596 81.3867 66.9253 80.2383 66.7599 79.05C66.5617 77.6301 64.644 76.7462 63.1263 77.1786C61.6087 77.611 60.6257 79.0397 60.5084 80.4666" fill="#3643BA"/>
<path d="M60.4632 80.8614C61.5485 81.737 63.0615 82.3231 64.482 82.0458C65.7224 81.8026 66.8628 80.8346 67.0654 79.5845C67.248 78.4609 66.5077 77.5366 65.5199 77.0526C64.4545 76.5322 63.2491 76.627 62.2488 77.2691C61.0309 78.0498 60.3106 79.4969 60.1931 80.8857C60.1656 81.214 59.9255 81.4937 59.5679 81.4937C59.2502 81.4937 58.9151 81.214 58.9426 80.8857C59.0802 79.2562 59.8079 77.6145 61.1359 76.5686C62.4638 75.5228 64.1094 75.2018 65.6774 75.8001C67.1404 76.3595 68.3183 77.6072 68.3433 79.1954C68.3708 80.9319 67.0479 82.4423 65.4398 83.0454C63.4292 83.797 61.1609 82.9992 59.5829 81.7248C59.3228 81.5156 59.3603 81.0827 59.5829 80.8638C59.8404 80.6133 60.2056 80.6522 60.4682 80.8638L60.4632 80.8614Z" fill="#101010"/>
<path d="M49.6802 90.029L128.748 82.6299L125.89 188.877L61.4335 203.724L49.6802 90.029Z" fill="#323B87"/>
<path d="M61.3152 203.626L48.9683 82.6299C48.9683 82.6299 59.9381 93.1099 68.9134 110.259C77.8887 127.408 96.4566 133.82 96.4566 133.82L97.4064 235.066L61.3152 203.626Z" fill="#212A7E"/>
<mask id="mask0_11493_13363" style="mask-type:alpha" maskUnits="userSpaceOnUse" x="48" y="82" width="50" height="154">
<path d="M61.3152 203.63L48.9683 82.6338C48.9683 82.6338 59.9381 93.1138 68.9134 110.263C77.8887 127.412 96.4566 133.824 96.4566 133.824L97.4064 235.07L61.3152 203.63Z" fill="#212A7E"/>
</mask>
<g mask="url(#mask0_11493_13363)">
<path d="M46.6203 103.679L44.6943 79.7852C44.6943 79.7852 62.9905 92.2102 68.7683 109.892C74.546 127.574 96.6941 132.353 96.6941 132.353V155.291C96.6941 155.291 71.8712 145.733 66.9494 130.441C62.0276 115.149 46.6203 103.679 46.6203 103.679Z" fill="#212A7E"/>
</g>
<path d="M80.5317 165.217C80.7871 163.634 81.3103 161.875 82.4735 161.58C83.5647 161.305 84.6657 162.49 85.3958 163.769C87.4287 167.33 87.9527 171.928 88.3129 176.262C89.1344 186.093 89.5257 195.933 89.4919 205.715C89.4863 207.619 89.4507 209.598 88.8228 211.217C88.1949 212.836 86.799 213.982 85.4466 213.36C83.9404 212.666 83.1995 210.284 82.7573 208.193C82.2 205.558 81.7755 202.885 81.4829 200.205C81.4829 200.205 79.7431 170.045 80.5274 165.21L80.5317 165.217Z" fill="#3643BA"/>
<path d="M87.8999 207.777C88.1209 208.832 88.4192 209.961 88.8558 210.91C89.444 209.33 89.496 207.434 89.5118 205.597C89.6097 195.845 89.2753 186.028 88.5038 176.223C88.1855 172.179 87.7243 167.907 85.9958 164.453C85.9637 164.604 85.9354 164.754 85.9108 164.905C85.0814 169.72 86.6553 199.804 86.6553 199.804C86.9355 202.478 87.3537 205.146 87.8999 207.777Z" fill="#212A7E"/>
<path d="M83.4984 161.161C84.1473 161.049 84.7894 161.906 85.117 162.383C85.6351 163.139 86.0153 163.99 86.3333 164.847C86.9992 166.629 87.3684 168.5 87.609 170.373C88.1385 174.548 88.2189 178.789 88.3551 182.977C88.4977 187.389 88.5591 191.799 88.5283 196.207C88.5152 198.39 88.4801 200.573 88.4228 202.753C88.3694 204.76 88.4163 206.838 87.9725 208.785C87.7666 209.689 87.4271 210.577 86.7819 211.227C86.2962 211.715 85.6043 212.023 84.9466 211.632C84.2889 211.24 83.9339 210.5 83.668 209.83C83.3187 208.943 83.0956 208.01 82.9239 207.077C82.8525 206.694 82.5964 206.362 82.1881 206.372C81.8534 206.38 81.4727 206.72 81.541 207.11C81.867 208.878 82.2801 210.862 83.5213 212.235C84.7624 213.607 86.6018 213.448 87.8118 212.22C89.2126 210.8 89.5205 208.56 89.6534 206.589C89.8107 204.238 89.8267 201.863 89.8654 199.498C89.9446 194.62 89.9167 189.737 89.7856 184.853C89.7217 182.437 89.6283 180.023 89.5129 177.609C89.4038 175.356 89.3015 173.095 89.0418 170.85C88.782 168.604 88.3345 166.121 87.4291 163.918C86.6753 162.084 85.3056 159.4 83.0419 159.789C82.6774 159.851 82.5017 160.347 82.6146 160.686C82.7505 161.098 83.127 161.231 83.4952 161.169L83.4984 161.161Z" fill="#101010"/>
<g opacity="0.9">
<path d="M63.8713 154.34C64.1126 152.861 64.6145 151.212 65.7702 150.929C66.8537 150.662 67.9633 151.758 68.702 152.943C70.7599 156.244 71.327 160.53 71.7301 164.572C72.6419 173.736 73.1252 182.916 73.1863 192.043C73.1976 193.82 73.1808 195.668 72.5733 197.186C71.9658 198.704 70.5841 199.789 69.2327 199.221C67.7288 198.592 66.9644 196.373 66.5053 194.428C65.9268 191.975 65.4741 189.49 65.1569 186.99C65.1569 186.99 63.1364 158.866 63.8722 154.348L63.8713 154.34Z" fill="#3643BA"/>
<path d="M71.5823 193.881C71.8105 194.862 72.119 195.911 72.5669 196.793C73.1405 195.32 73.1777 193.55 73.1807 191.843C73.198 182.761 72.776 173.622 71.919 164.495C71.568 160.732 71.0661 156.756 69.3031 153.554C69.2744 153.694 69.2458 153.834 69.2209 153.974C68.43 158.463 70.2639 186.466 70.2639 186.466C70.5678 188.957 71.0068 191.435 71.5823 193.881Z" fill="#212A7E"/>
<path d="M65.4261 195.975C65.7972 197.592 66.478 199.83 68.2357 200.389C70.1918 201.011 71.3029 198.999 71.7979 197.44C72.1321 196.388 72.3087 195.267 72.5132 194.174C72.7402 192.968 72.9409 191.759 73.1223 190.543C73.4771 188.156 73.7412 185.75 73.9109 183.33C74.2547 178.386 74.222 173.395 73.6897 168.413C73.4268 165.943 73.0376 163.482 72.5302 161.041C72.2739 159.809 71.9842 158.581 71.6618 157.365C71.3745 156.288 71.1005 155.183 70.6812 154.142C70.2971 153.181 69.7517 152.153 68.8392 151.617C67.9267 151.082 66.8201 151.285 66.09 151.994C65.2865 152.776 65.0337 153.874 64.7648 154.953C64.4666 156.155 64.1577 157.307 64.0912 158.569C64.072 158.959 64.4932 159.291 64.8402 159.288C65.2581 159.284 65.4711 158.946 65.4941 158.556C65.5462 157.588 65.7955 156.664 66.0375 155.743C66.2463 154.943 66.3543 154.086 66.8169 153.399C67.1705 152.871 67.7472 152.499 68.3487 152.96C68.9501 153.421 69.2477 154.202 69.489 154.863C70.2183 156.873 70.6982 159.01 71.1408 161.088C71.6096 163.283 71.964 165.497 72.2216 167.717C73.2432 176.513 72.7376 185.362 71.1319 193.89C70.9328 194.952 70.7656 196.045 70.4334 197.071C70.2195 197.736 69.8703 198.673 69.2035 198.98C67.7103 199.665 66.9726 196.501 66.7591 195.581C66.5457 194.661 65.2246 195.067 65.4338 195.979L65.4261 195.975Z" fill="#101010"/>
</g>
<path d="M124.475 186.66L128.292 74.7959C128.292 74.7959 140.697 76.1618 155.011 103.479C160.736 118.777 175.05 120.689 175.05 120.689L166.461 220.822L124.475 186.66Z" fill="#2B3163"/>
<path d="M97.0505 235.066L96.6943 147.242L174.338 133.917L165.816 220.789L97.0505 235.066Z" fill="#3643BA"/>
<mask id="mask1_11493_13363" style="mask-type:alpha" maskUnits="userSpaceOnUse" x="96" y="133" width="79" height="103">
<path d="M97.0495 235.064L96.6934 147.239L174.337 133.914L165.815 220.786L97.0495 235.064Z" fill="#0380C1"/>
</mask>
<g mask="url(#mask1_11493_13363)">
<path d="M180.035 119.668L96.6934 132.182V155.284L178.141 141.808L180.035 119.668Z" fill="#3643BA"/>
</g>
<path d="M112.395 167.076C112.807 165.447 113.519 163.644 114.801 163.377C116.003 163.126 117.096 164.385 117.78 165.731C119.681 169.471 119.866 174.236 119.892 178.727C119.956 188.908 119.563 199.088 118.709 209.193C118.542 211.163 118.34 213.205 117.525 214.859C116.71 216.513 115.107 217.655 113.694 216.972C112.124 216.212 111.519 213.727 111.219 211.552C110.836 208.813 110.598 206.04 110.504 203.262C110.504 203.262 111.14 172.047 112.395 167.076Z" fill="#3643BA"/>
<path d="M113.235 165.637C113.15 165.467 113.06 165.302 112.962 165.14C112.688 165.738 112.476 166.414 112.315 167.067C111.078 172.037 110.48 203.237 110.48 203.237C110.576 206.013 110.814 208.785 111.196 211.522C111.401 212.989 111.741 214.593 112.417 215.717C112.65 215.422 112.861 215.094 113.033 214.74C113.838 213.086 114.035 211.045 114.199 209.076C115.033 198.975 115.417 188.8 115.339 178.62C115.305 174.131 115.12 169.369 113.235 165.633L113.235 165.637Z" fill="#212A7E"/>
<path d="M111.282 187.093C111.253 180.963 111.406 174.829 111.758 168.7C111.848 167.134 111.596 163.364 113.909 163.313C116.394 163.258 117.036 166.324 117.251 168.289C118.558 180.203 118.258 192.315 117.547 204.286C117.447 205.971 117.336 207.656 117.22 209.341C117.126 210.706 117.106 212.125 116.675 213.439C116.369 214.369 115.765 215.252 114.752 215.346C114.146 215.405 113.182 215.179 113.147 214.425C113.1 213.444 111.603 213.43 111.654 214.418C111.768 216.699 114.463 217.428 116.202 216.468C118.537 215.178 118.545 211.766 118.707 209.45C119.172 202.78 119.529 196.102 119.608 189.422C119.687 182.742 119.496 176.209 118.88 169.641C118.633 167.007 118.426 163.668 115.857 162.292C114.839 161.746 113.616 161.581 112.548 162.113C111.48 162.646 110.835 163.861 110.596 165.057C110.266 166.713 110.277 168.455 110.19 170.132C110.092 171.969 110.013 173.81 109.951 175.651C109.824 179.464 109.769 183.281 109.789 187.099C109.793 188.088 111.286 188.098 111.282 187.106L111.282 187.093Z" fill="#101010"/>
<path d="M130.671 164.111C131.083 162.482 131.795 160.679 133.078 160.412C134.28 160.16 135.372 161.419 136.056 162.765C137.956 166.505 138.141 171.27 138.167 175.761C138.229 185.941 137.834 196.121 136.979 206.227C136.811 208.196 136.609 210.239 135.794 211.893C134.979 213.546 133.375 214.689 131.962 214.006C130.393 213.246 129.788 210.762 129.488 208.587C129.106 205.848 128.869 203.075 128.774 200.297C128.774 200.297 129.416 169.082 130.671 164.111Z" fill="#3643BA"/>
<path d="M131.514 162.677C131.428 162.507 131.338 162.342 131.24 162.18C130.967 162.778 130.754 163.454 130.593 164.107C129.356 169.077 128.758 200.277 128.758 200.277C128.854 203.053 129.093 205.825 129.474 208.562C129.68 210.029 130.019 211.634 130.696 212.757C130.929 212.462 131.139 212.134 131.311 211.78C132.116 210.127 132.314 208.085 132.477 206.116C133.312 196.015 133.695 185.84 133.618 175.66C133.583 171.171 133.399 166.409 131.514 162.673L131.514 162.677Z" fill="#212A7E"/>
<path d="M130.512 208.32C130.611 209.317 130.753 210.31 130.976 211.283C131.169 212.128 131.36 213.072 131.802 213.825C132.2 214.507 132.865 215.006 133.665 215.001C134.465 214.997 135.194 214.491 135.713 213.899C136.865 212.588 137.509 210.708 138.026 209.054C138.572 207.309 138.912 205.506 139.161 203.699C139.871 198.527 139.967 193.225 139.981 188.018C139.996 182.81 139.858 177.876 139.333 172.846C139.106 170.689 138.823 168.522 138.329 166.412C137.987 164.955 137.559 163.391 136.699 162.165C135.949 161.092 134.657 160.286 133.386 161.076C132.397 161.691 131.906 162.969 131.582 164.046C131.106 165.614 130.892 167.278 130.757 168.906C130.687 169.775 130.645 170.644 130.631 171.513C130.614 172.501 132.103 172.512 132.123 171.519C132.15 169.912 132.248 168.297 132.509 166.707C132.708 165.49 132.953 164.166 133.572 163.083C133.76 162.755 133.972 162.461 134.249 162.331C134.141 162.38 134.345 162.303 134.381 162.299C134.405 162.295 134.361 162.307 134.48 162.299C134.699 162.288 134.39 162.241 134.595 162.316C134.678 162.345 134.915 162.457 134.718 162.349C134.809 162.399 134.896 162.453 134.986 162.51C135.152 162.614 134.936 162.432 135.096 162.605C135.178 162.696 135.264 162.778 135.342 162.873C135.381 162.918 135.416 162.967 135.456 163.013C135.362 162.893 135.444 162.992 135.483 163.054C135.56 163.177 135.638 163.296 135.707 163.42C135.854 163.679 135.981 163.954 136.1 164.229C136.188 164.439 136.299 164.73 136.408 165.075C136.534 165.453 136.643 165.835 136.744 166.221C137.219 168.048 137.506 169.927 137.734 171.802C138.291 176.401 138.449 181.06 138.491 185.698C138.532 189.992 138.429 194.285 138.155 198.573C137.94 201.935 137.626 205.324 136.629 208.56C136.377 209.375 136.089 210.177 135.738 210.951C135.424 211.642 135.101 212.375 134.579 212.926C134.21 213.314 133.646 213.726 133.217 213.211C132.745 212.648 132.613 211.675 132.454 210.977C132.253 210.107 132.105 209.221 132.016 208.326C131.975 207.912 131.718 207.554 131.281 207.552C130.914 207.551 130.483 207.902 130.52 208.32L130.512 208.32Z" fill="#101010"/>
<path d="M150.818 159.736C151.23 158.108 151.942 156.304 153.224 156.038C154.426 155.786 155.519 157.045 156.203 158.391C158.103 162.131 158.289 166.896 158.315 171.387C158.379 181.568 157.985 191.748 157.132 201.853C156.964 203.823 156.763 205.865 155.948 207.519C155.133 209.173 153.529 210.315 152.117 209.632C150.547 208.872 149.942 206.387 149.642 204.212C149.259 201.473 149.021 198.7 148.927 195.922C148.927 195.922 149.563 164.707 150.818 159.736Z" fill="#3643BA"/>
<path d="M151.659 158.302C151.573 158.132 151.484 157.967 151.386 157.805C151.112 158.403 150.899 159.079 150.739 159.732C149.502 164.702 148.903 195.902 148.903 195.902C149 198.678 149.238 201.45 149.62 204.187C149.825 205.654 150.164 207.259 150.841 208.382C151.074 208.087 151.285 207.759 151.457 207.405C152.262 205.751 152.459 203.71 152.623 201.741C153.457 191.64 153.841 181.465 153.763 171.285C153.729 166.796 153.544 162.034 151.659 158.298L151.659 158.302Z" fill="#212A7E"/>
<path d="M152.145 166.941C152.061 165.313 152.087 163.681 152.241 162.054C152.381 160.594 152.577 159.07 153.005 157.661C153.131 157.252 153.329 156.625 153.78 156.475C154.252 156.317 154.736 156.861 155.001 157.182C155.835 158.194 156.205 159.627 156.507 160.895C157.206 163.834 157.275 166.901 157.404 169.92C157.542 173.147 157.648 176.379 157.694 179.61C157.792 186.204 157.656 192.809 157.094 199.388C156.962 200.929 156.872 202.499 156.597 204.023C156.391 205.166 155.974 206.85 154.723 207.23C153.832 207.501 153.317 206.42 153.002 205.738C152.557 204.769 152.292 203.702 152.111 202.647C151.78 200.747 151.549 198.844 151.49 196.908C151.41 194.226 151.526 191.537 151.606 188.855C151.634 187.867 150.144 187.857 150.115 188.849C149.981 193.42 149.819 197.938 150.564 202.452C150.759 203.634 151.01 204.787 151.445 205.9C151.853 206.943 152.438 208.139 153.488 208.611C154.774 209.19 156.123 208.405 156.916 207.334C157.868 206.046 158.082 204.341 158.251 202.784C159.041 195.628 159.263 188.416 159.198 181.228C159.166 177.624 159.058 174.023 158.91 170.422C158.77 167.108 158.71 163.717 157.945 160.483C157.595 159.013 157.127 157.474 156.213 156.277C155.434 155.256 154.092 154.431 152.862 155.233C151.633 156.036 151.389 157.79 151.145 159.125C150.834 160.83 150.651 162.555 150.606 164.285C150.584 165.167 150.597 166.044 150.647 166.926C150.698 167.906 152.189 167.921 152.137 166.933L152.145 166.941Z" fill="#101010"/>
<path d="M46.6203 96.5525L44.6943 72.6582C44.6943 72.6582 62.9905 85.0832 68.7683 102.765C74.546 120.447 96.6941 125.226 96.6941 125.226V148.164C96.6941 148.164 71.8712 138.606 66.9494 123.314C62.0276 108.022 46.6203 96.5525 46.6203 96.5525Z" fill="#212A7E"/>
<path d="M127.324 82.3149L128.282 65.5332C128.282 65.5332 151.12 71.5294 156.87 89.0398C162.62 106.55 180.036 111.912 180.036 111.912L178.119 134.628C178.119 134.628 152.508 120.923 147.61 105.779C142.711 90.6352 127.324 82.3149 127.324 82.3149Z" fill="#2B3163"/>
<path d="M180.036 112.55L96.6943 125.064V148.166L178.142 134.689L180.036 112.55Z" fill="#27329B"/>
<path d="M134.374 125.693C126.632 127.171 118.872 128.543 111.103 129.868C108.891 130.244 106.683 130.617 104.471 130.983C103.395 131.164 103.764 132.822 104.841 132.641C112.642 131.342 120.438 129.999 128.218 128.573C130.397 128.175 132.574 127.766 134.747 127.35C135.821 127.145 135.452 125.488 134.377 125.693L134.374 125.693Z" fill="white"/>
<path d="M144.776 123.63C143.01 123.994 141.237 124.352 139.468 124.702C139.032 124.79 138.705 125.28 138.823 125.718C138.941 126.155 139.371 126.456 139.838 126.363C141.61 126.013 143.379 125.655 145.145 125.291C145.582 125.2 145.908 124.716 145.791 124.275C145.673 123.834 145.243 123.534 144.776 123.63Z" fill="white"/>
<path d="M97.8382 147.892C97.6037 140.347 97.4773 133.526 97.5869 125.978C97.5984 125.158 96.3295 125.247 96.3176 126.06C96.2212 132.641 96.4426 143.812 96.5689 147.974C96.5946 148.792 97.8639 148.71 97.8382 147.892Z" fill="#101010"/>
<path d="M166.696 219.864C167.2 212.333 167.533 207.659 168.38 200.157C168.471 199.343 167.2 199.307 167.108 200.115C166.369 206.655 165.706 215.667 165.425 219.822C165.37 220.638 166.641 220.68 166.696 219.864Z" fill="#101010"/>
<path d="M47.4051 95.8082C46.5848 88.3044 46.0946 80.0826 45.6171 72.549C45.5648 71.7307 44.3067 71.918 44.358 72.7296C44.7735 79.2975 45.6966 91.8486 46.146 95.9887C46.2352 96.8018 47.4943 96.6212 47.4051 95.8082Z" fill="#101010"/>
<path d="M96.9237 126.546C104.322 125.049 151.659 117.728 159.118 116.57C159.928 116.444 159.628 115.208 158.824 115.333C152.321 116.341 100.712 124.485 96.6299 125.308C95.8283 125.471 96.1221 126.708 96.9237 126.546Z" fill="#101010"/>
<path d="M125.551 229.726C132.883 227.93 158.647 222.408 166.053 220.949C166.857 220.79 166.507 219.567 165.709 219.724C159.252 220.996 129.253 227.514 125.207 228.501C124.413 228.696 124.757 229.921 125.551 229.726Z" fill="#101010"/>
<path d="M45.1314 73.3578C73.1872 90.4659 58.5845 111.123 95.9269 126.371C96.6429 126.771 97.1676 125.612 96.4578 125.215C61.4337 111.835 73.187 89.0412 45.6623 72.2019C44.9307 71.8361 44.4331 72.932 45.1314 73.3578Z" fill="#101010"/>
<path d="M46.5564 96.8615C73.1873 117.531 59.2971 133.202 96.6396 148.45C97.3555 148.85 97.8802 147.691 97.1704 147.294C62.1463 133.915 73.1873 114.682 47.0872 95.7056C46.3557 95.3398 45.9102 96.36 46.5564 96.8615Z" fill="#101010"/>
<path d="M97.5844 148.414C104.983 146.918 130.949 142.446 138.409 141.288C139.219 141.162 138.919 139.926 138.115 140.051C131.612 141.059 101.373 146.354 97.2905 147.177C96.4889 147.339 96.7828 148.577 97.5844 148.414Z" fill="#101010"/>
<path d="M13.5171 95.5869C12.5853 100.45 11.0084 105.181 8.81254 109.656C8.35806 110.585 9.78929 111.28 10.2481 110.346C12.5001 105.752 14.1364 100.875 15.0918 95.8814C15.2869 94.8708 13.7117 94.5672 13.5168 95.5824L13.5171 95.5869Z" fill="#3643BA"/>
<path d="M5.72795 102.215C10.3085 102.926 14.7014 104.461 18.7147 106.751C19.606 107.259 20.3306 105.791 19.4416 105.285C15.321 102.934 10.7666 101.345 6.06247 100.616C5.04838 100.458 4.70696 102.056 5.72558 102.213L5.72795 102.215Z" fill="#3643BA"/>
<path d="M30.6093 121.02C30.5217 121.048 30.4342 121.077 30.3464 121.101C30.3104 121.111 30.2721 121.12 30.2338 121.128C30.2654 121.122 30.3673 121.111 30.2089 121.131C30.0347 121.154 29.8576 121.161 29.6819 121.148C29.8211 121.158 29.5926 121.131 29.5537 121.126C29.4667 121.111 29.384 121.091 29.2966 121.068C29.2576 121.058 29.0848 121.003 29.2071 121.046C29.1125 121.011 29.0176 120.972 28.9272 120.928C28.765 120.852 28.6089 120.761 28.4594 120.662C28.5715 120.735 28.4149 120.63 28.3821 120.604C28.2976 120.539 28.2199 120.471 28.1419 120.4C27.8139 120.101 27.74 120.015 27.5071 119.652C27.1217 119.055 26.9234 118.474 26.9182 117.774C26.9184 117.722 26.9244 117.53 26.9209 117.558C26.9178 117.594 26.9384 117.425 26.9458 117.384C26.9844 117.153 27.0409 116.916 27.1208 116.697C27.2235 116.42 27.4867 115.95 27.6577 115.732C28.6596 114.452 30.3454 113.725 31.8752 114.276C33.405 114.827 34.5633 116.325 34.4151 117.968C34.2669 119.611 32.6885 121.146 30.9419 121.147C29.9048 121.148 29.9712 122.753 31.006 122.755C33.2849 122.755 35.3144 121.012 35.8828 118.842C36.4512 116.672 35.2045 114.27 33.2495 113.152C31.1851 111.972 28.6741 112.48 26.9911 114.075C26.1804 114.844 25.5765 115.897 25.384 117C25.2061 118.013 25.3962 119.015 25.8288 119.939C26.7309 121.857 28.9468 123.299 31.078 122.563C32.056 122.224 31.5877 120.69 30.6073 121.027L30.6093 121.02Z" fill="#E1E3F5"/>
<path d="M26.8324 46.158C26.9433 46.1036 26.7237 46.2028 26.6919 46.2122C26.6055 46.2456 26.5173 46.2721 26.429 46.2985C26.3408 46.3249 26.2509 46.3444 26.1609 46.3639C26.071 46.3833 26.1547 46.3625 26.1711 46.3628C26.1066 46.3715 26.0421 46.3802 25.9744 46.3882C25.7925 46.4069 25.6063 46.4148 25.4237 46.407C25.4041 46.4059 25.2386 46.3953 25.3323 46.4031C25.4167 46.4087 25.2877 46.3964 25.2808 46.3982C25.1751 46.3845 25.0702 46.3677 24.9692 46.3485C24.7865 46.311 24.6091 46.2649 24.4314 46.2055C24.4063 46.1999 24.2864 46.1469 24.4094 46.2006C24.3732 46.186 24.3369 46.1713 24.3007 46.1567C24.2045 46.1155 24.1097 46.068 24.015 46.0205C23.9327 45.9758 23.8536 45.9319 23.7752 45.8848C23.7285 45.8579 23.6857 45.8286 23.6428 45.7993C23.6571 45.809 23.7278 45.861 23.6515 45.8045C23.4933 45.6869 23.3442 45.5582 23.2049 45.4152C23.1753 45.3856 23.038 45.2331 23.0621 45.2583C23.1168 45.3231 23.0168 45.1955 23.0064 45.1833C22.9837 45.1519 22.9611 45.1205 22.9391 45.086C22.8873 45.0086 22.8392 44.9287 22.7912 44.8489C22.765 44.8035 22.7396 44.755 22.7142 44.7066C22.6519 44.5873 22.7501 44.7969 22.6985 44.6735C22.6248 44.5023 22.5656 44.3244 22.5204 44.1432C22.511 44.1114 22.4638 43.8803 22.4839 43.9967C22.4679 43.8911 22.4551 43.7862 22.4461 43.6788C22.432 43.4913 22.431 43.3034 22.4395 43.1176C22.4469 42.9513 22.4465 43.0566 22.442 43.0918C22.4472 43.0534 22.4532 43.012 22.4584 42.9736C22.4749 42.8555 22.4983 42.7356 22.5249 42.6164C22.6172 42.2023 22.664 42.0811 22.881 41.6981C22.9348 41.6047 22.991 41.5152 23.0503 41.4263C22.9857 41.5239 23.097 41.3643 23.119 41.3396C23.2512 41.1748 23.4016 41.0173 23.5641 40.879C23.4825 40.9498 23.6307 40.8313 23.6544 40.8136C23.7364 40.7561 23.8215 40.6994 23.9083 40.6496C23.9728 40.6113 24.0398 40.5768 24.1067 40.5423C23.9882 40.6015 24.0997 40.5441 24.1245 40.5364C24.1824 40.5131 24.2403 40.4898 24.2981 40.4665C24.4519 40.4118 24.606 40.3705 24.7632 40.3298C24.9205 40.2891 24.8152 40.3183 24.7779 40.3232C24.826 40.3141 24.8765 40.3089 24.9278 40.3006C25.0264 40.2864 25.1268 40.2791 25.2265 40.275C25.4033 40.265 25.5772 40.2676 25.7522 40.2802C25.6131 40.269 25.7898 40.2886 25.8383 40.2928C25.9502 40.3079 26.0606 40.3292 26.1704 40.3537C26.2551 40.3726 26.343 40.3922 26.4262 40.4173C26.4639 40.4257 26.497 40.4397 26.5339 40.4512C26.5559 40.4561 26.7054 40.5092 26.611 40.4749C26.544 40.4501 26.7584 40.5374 26.7883 40.5507C26.8782 40.5905 26.9699 40.6373 27.0584 40.6833C27.1351 40.7235 27.2103 40.7699 27.2824 40.8156C27.3142 40.8358 27.3459 40.8561 27.3776 40.8763C27.349 40.8568 27.2654 40.7887 27.3887 40.8854C27.5344 41.0001 27.6754 41.1205 27.8036 41.2544C27.8301 41.2834 27.9788 41.4581 27.8911 41.3497C27.9451 41.4177 27.9952 41.4881 28.0447 41.5617C28.0941 41.6353 28.1397 41.7113 28.1822 41.7866C28.1986 41.8166 28.2174 41.8504 28.233 41.8835C28.2748 41.962 28.201 41.7908 28.2536 41.9243C28.3145 42.0795 28.3684 42.2364 28.4115 42.3975C28.4202 42.4323 28.4258 42.4665 28.4345 42.5014C28.4633 42.623 28.4182 42.3825 28.4338 42.5045C28.4487 42.6 28.458 42.691 28.466 42.7883C28.4739 42.8855 28.4763 42.9782 28.478 43.0741C28.4766 43.11 28.4783 43.1466 28.4769 43.1825C28.4769 43.1825 28.4652 43.3972 28.4726 43.2902C28.48 43.1832 28.4684 43.3387 28.4635 43.3606C28.4562 43.4084 28.452 43.4568 28.4415 43.5039C28.4268 43.5994 28.4058 43.6935 28.3855 43.7844C28.3617 43.8911 28.3324 43.9932 28.2992 44.0978C28.2915 44.1323 28.2776 44.1654 28.2667 44.1992C28.2262 44.3218 28.3481 44.0263 28.2528 44.2323C28.1707 44.4083 28.0957 44.5825 27.9962 44.748C27.9484 44.8295 27.8975 44.9104 27.8434 44.9905C27.9313 44.862 27.7799 45.0686 27.7488 45.1044C27.6271 45.2518 27.4925 45.3831 27.3547 45.5138C27.2427 45.6172 27.3226 45.5395 27.3502 45.5193C27.3027 45.5549 27.2553 45.5904 27.2079 45.6259C27.1297 45.6809 27.0492 45.7321 26.9693 45.7802C26.9386 45.7997 26.9087 45.816 26.8755 45.8317C26.8602 45.8415 26.6876 45.9215 26.7755 45.8818C26.8557 45.847 26.7469 45.8919 26.7361 45.8961C26.6681 45.9205 26.6025 45.9487 26.5321 45.9692C26.1224 46.1083 25.8767 46.5606 26.0107 46.979C26.1446 47.3974 26.6077 47.6389 27.0205 47.5004C28.837 46.8846 29.9564 45.1125 30.0699 43.2445C30.1904 41.2563 28.879 39.591 27.0512 38.9432C25.2233 38.2954 23.0778 38.7622 21.8847 40.3038C20.6915 41.8455 20.4163 44.2767 21.6021 45.9733C22.953 47.9042 25.598 48.5202 27.6905 47.5082C28.0817 47.3188 28.1525 46.7354 27.938 46.3978C27.682 45.995 27.2219 45.9616 26.8276 46.1503L26.8324 46.158Z" fill="#E1E3F5"/>
<path d="M13.5307 16.6863C16.375 20.5438 19.2187 24.4044 22.063 28.2618C22.3207 28.6123 22.7867 28.7524 23.1734 28.5094C23.5225 28.2875 23.6787 27.7494 23.421 27.399C20.5766 23.5415 17.733 19.6809 14.8886 15.8234C14.6309 15.4729 14.1649 15.3328 13.7782 15.5759C13.4291 15.7977 13.273 16.3358 13.5307 16.6863Z" fill="#3643BA"/>
<path d="M12.9038 26.7649C17.3181 22.6486 21.7324 18.5323 26.1467 14.4161C26.4627 14.121 26.4063 13.5619 26.1036 13.2804C25.7649 12.9678 25.2877 13.0261 24.9679 13.3236C20.5535 17.4398 16.1392 21.5561 11.7249 25.6724C11.4089 25.9674 11.4654 26.5266 11.7681 26.8081C12.1067 27.1206 12.584 27.0624 12.9038 26.7649Z" fill="#3643BA"/>
<path d="M35.2638 21.6838C35.8751 23.4065 36.9431 24.8977 38.3655 25.8922C38.699 26.1244 39.1862 26.1505 39.4926 25.7419C39.7493 25.3998 39.8222 24.7843 39.4668 24.5348C39.1497 24.3156 38.8508 24.0709 38.5734 23.8013C38.4328 23.6679 38.2998 23.5287 38.1683 23.3826C38.1112 23.3214 38.0067 23.2426 37.9765 23.1608C38.0376 23.2331 38.0471 23.2486 38.0118 23.2047C37.9945 23.181 37.9742 23.1569 37.9562 23.1367C37.9264 23.0971 37.8966 23.0575 37.8668 23.0179C37.6315 22.7017 37.4192 22.3678 37.2293 22.0196C37.1331 21.8435 37.0477 21.6621 36.9624 21.4806C36.9212 21.3901 37.0187 21.6191 36.9631 21.4772C36.9448 21.4287 36.9258 21.3837 36.9068 21.3387C36.8655 21.2341 36.8274 21.1299 36.7892 21.0258C36.6467 20.6212 36.2176 20.3573 35.7954 20.5624C35.4087 20.7516 35.1102 21.2565 35.263 21.6872L35.2638 21.6838Z" fill="#3643BA"/>
<path d="M35.6175 26.6235C37.6054 24.9729 39.5972 23.3195 41.5852 21.6689C41.9406 21.3736 42.0799 20.8556 41.8468 20.4776C41.6302 20.1262 41.1101 20.0222 40.7516 20.3171C38.7637 21.9676 36.7719 23.6211 34.7839 25.2716C34.4285 25.5669 34.2892 26.0849 34.5223 26.463C34.7389 26.8143 35.2589 26.9183 35.6175 26.6235Z" fill="#3643BA"/>
<path d="M147.601 14.7004C148.311 11.344 149.021 7.99076 149.731 4.63436C149.946 3.60783 148.343 3.4323 148.127 4.45883C147.417 7.81523 146.708 11.1685 145.997 14.5249C145.782 15.5514 147.386 15.7269 147.601 14.7004Z" fill="#3643BA"/>
<path d="M141.97 9.36882C144.997 10.2992 148.023 11.2296 151.053 12.1604C151.462 12.285 151.927 11.7671 152.016 11.2633C152.122 10.6619 151.824 10.2537 151.411 10.1287C148.385 9.1983 145.358 8.26793 142.328 7.33709C141.919 7.21249 141.454 7.73034 141.366 8.23421C141.26 8.8356 141.558 9.24375 141.97 9.36882Z" fill="#3643BA"/>
<path d="M172.492 12.9067C171.527 12.8628 170.52 12.7304 169.621 12.3621C168.908 12.0716 168.227 11.6431 167.795 11.1123C166.766 9.85218 166.756 8.01935 167.577 6.57921C168.474 5.01084 170.237 4.28102 171.99 4.67187C173.966 5.11236 175.17 6.77029 175.354 8.73743C175.446 9.71281 175.363 10.7379 174.773 11.5351C174.184 12.3323 173.251 12.7499 172.29 12.9438C171.865 13.0303 171.648 13.5747 171.768 13.9537C171.911 14.4038 172.351 14.5609 172.778 14.4751C173.898 14.2506 174.978 13.7177 175.751 12.8659C176.567 11.9678 176.941 10.8198 176.985 9.6211C177.078 7.04725 175.835 4.4227 173.354 3.42833C171.084 2.51741 168.421 2.97406 166.811 4.89054C165.306 6.67882 164.907 9.25351 166.019 11.3419C167.275 13.6963 170.11 14.404 172.572 14.5147C173.005 14.5356 173.354 14.0767 173.336 13.6709C173.311 13.2045 172.929 12.9282 172.492 12.9067Z" fill="#E1E3F5"/>
<path d="M161.082 25.2585C161.082 25.2585 160.936 25.3114 160.925 25.2992L161.025 25.2818C160.99 25.2874 160.953 25.2922 160.919 25.2978C160.814 25.3106 160.709 25.3071 160.603 25.3098C160.419 25.3114 160.791 25.3416 160.61 25.3112C160.56 25.3 160.505 25.2944 160.455 25.2832C160.404 25.272 160.351 25.2601 160.301 25.2489C160.266 25.2412 160.233 25.2304 160.199 25.2196C160.113 25.1906 160.131 25.1979 160.25 25.2409C160.25 25.2245 159.99 25.1205 159.96 25.1072C159.914 25.0803 159.867 25.0534 159.82 25.0266L159.774 24.9966C159.703 24.9477 159.714 24.9568 159.81 25.0276C159.718 25.0004 159.344 24.6801 159.334 24.5923L159.396 24.6687C159.373 24.6404 159.353 24.6129 159.33 24.5846C159.296 24.541 159.266 24.4981 159.237 24.4521C159.206 24.4022 159.069 24.2334 159.078 24.1763L159.121 24.2648C159.108 24.2324 159.093 24.1993 159.08 24.1668C159.062 24.1166 159.043 24.0664 159.028 24.0169C159.013 23.9674 159.001 23.9155 158.986 23.866C158.969 23.7799 158.969 23.7962 158.991 23.9165C158.986 23.8823 158.98 23.8482 158.978 23.8116C158.965 23.7066 158.966 23.6014 158.967 23.493C158.969 23.3089 158.926 23.6749 158.967 23.493C158.975 23.4553 158.98 23.4201 158.988 23.3825C159 23.3292 159.016 23.2734 159.031 23.2208C159.072 23.0357 158.952 23.3842 159.032 23.2145C159.088 23.0985 159.146 22.9863 159.214 22.873C159.309 22.7131 159.099 23.0054 159.222 22.865C159.258 22.8235 159.294 22.7789 159.33 22.7375C159.365 22.696 159.407 22.656 159.445 22.6183C159.479 22.5832 159.589 22.4462 159.455 22.6041C159.522 22.5267 159.641 22.4644 159.729 22.4083C159.775 22.3791 159.824 22.3505 159.873 22.322C159.907 22.3032 159.94 22.2875 159.974 22.2687C159.872 22.315 159.861 22.3192 159.941 22.2844C160.027 22.251 160.115 22.2144 160.206 22.1887C160.259 22.171 160.315 22.157 160.368 22.1424L160.424 22.1285C160.51 22.1115 160.496 22.1119 160.383 22.1327C160.462 22.0909 160.627 22.1015 160.716 22.1015C160.772 22.1009 160.828 22.1034 160.881 22.102C160.972 22.1059 160.956 22.1055 160.833 22.0946C160.868 22.0992 160.906 22.1044 160.942 22.109C161.05 22.1265 161.155 22.1565 161.265 22.181C161.448 22.2285 161.099 22.098 161.271 22.1824C161.321 22.2069 161.373 22.2282 161.423 22.2557C161.472 22.2833 161.518 22.3133 161.568 22.3409C161.436 22.2226 161.734 22.4372 161.568 22.3409C161.642 22.4068 161.716 22.4759 161.789 22.5481C161.913 22.6712 161.687 22.4002 161.786 22.5442C161.817 22.584 161.844 22.623 161.874 22.6659C161.906 22.7158 161.976 22.9027 162.024 22.9264C161.955 22.8947 161.961 22.7807 162.017 22.925C162.037 22.9721 162.053 23.0185 162.068 23.068C162.083 23.1175 162.099 23.1639 162.111 23.2127C162.121 23.2444 162.126 23.2786 162.136 23.3103C162.153 23.3964 162.151 23.3762 162.128 23.2559C162.099 23.2956 162.161 23.5529 162.161 23.609C162.164 23.6986 162.132 23.8297 162.156 23.914C162.116 23.7669 162.167 23.7882 162.152 23.9032C162.143 23.9705 162.129 24.0364 162.114 24.1022C162.103 24.1524 162.092 24.2026 162.078 24.249C162.071 24.2803 162.06 24.3141 162.05 24.3448C162.022 24.4274 162.029 24.4093 162.073 24.2842C162.008 24.3685 161.978 24.5065 161.923 24.603C161.9 24.6473 161.872 24.687 161.845 24.7306C161.776 24.8501 161.963 24.5888 161.821 24.7647C161.795 24.795 161.575 24.9963 161.581 25.0173C161.575 24.9831 161.727 24.9082 161.582 25.011C161.527 25.0514 161.469 25.0879 161.413 25.1214C161.052 25.3373 160.921 25.881 161.165 26.2318C161.41 26.5826 161.888 26.7091 162.276 26.4793C163.316 25.8585 163.849 24.6074 163.764 23.4229C163.671 22.1247 162.884 21.0011 161.621 20.6109C160.358 20.2207 158.946 20.7357 158.124 21.6784C157.234 22.7016 157.146 24.144 157.876 25.2847C158.653 26.4982 160.166 27.1977 161.578 26.788C161.983 26.6708 162.244 26.176 162.099 25.7782C161.954 25.3804 161.522 25.1326 161.089 25.2568L161.082 25.2585Z" fill="#3643BA"/>
<path d="M189.01 87.5301C189.077 91.1876 189.142 94.8415 189.209 98.499C189.228 99.5411 190.815 99.313 190.797 98.2676C190.729 94.6101 190.664 90.9562 190.597 87.2987C190.578 86.2566 188.991 86.4847 189.01 87.5301Z" fill="#3643BA"/>
<path d="M185.369 95.1302C188.426 95.7163 191.578 95.7871 194.736 95.3623C195.77 95.2248 195.698 93.186 194.664 93.3235C191.644 93.7273 188.649 93.6426 185.727 93.081C184.724 92.8908 184.367 94.9401 185.369 95.1302Z" fill="#3643BA"/>
<path d="M195.762 132.159C193.587 132.356 191.481 131.051 190.491 129.111C189.501 127.172 190.125 124.756 191.722 123.238C193.318 121.72 195.737 121.341 197.687 122.517C199.638 123.692 200.774 125.997 200.2 128.187C199.556 130.634 196.872 132.466 194.357 132.064C193.34 131.9 192.984 133.467 194.008 133.632C196.964 134.107 200.033 132.42 201.328 129.729C202.623 127.038 201.724 123.756 199.454 121.827C198.322 120.864 196.94 120.272 195.454 120.188C194.059 120.108 192.633 120.583 191.492 121.373C189.132 123.01 187.784 125.999 188.65 128.819C189.571 131.823 192.688 134.056 195.844 133.768C196.87 133.674 196.799 132.068 195.764 132.163L195.762 132.159Z" fill="#E1E3F5"/>
<path d="M205.447 106.779C205.529 109.236 205.316 111.707 204.802 114.169C204.586 115.208 206.142 115.409 206.357 114.37C206.898 111.772 207.128 109.137 207.04 106.548C207.005 105.512 205.412 105.744 205.447 106.782L205.447 106.779Z" fill="#3643BA"/>
<path d="M200.972 110.836C203.696 109.688 206.595 109.844 209.032 111.198C209.938 111.701 210.699 109.849 209.796 109.35C206.97 107.784 203.636 107.684 200.493 109.009C200.072 109.186 199.844 109.856 199.965 110.322C200.101 110.847 200.547 111.016 200.971 110.84L200.972 110.836Z" fill="#3643BA"/>
</svg>
